# xmcd CD database file
#
# Track frame offsets:
#	150
#	16272
#	32410
#
# Disc length: 651 seconds
#
# Revision: 0
# Processed by: cddbd v1.5.1PL0 Copyright (c) Steve Scherf et al.
# Submitted via: CDex 1.51
#
DISCID=14028903
DTITLE=supercar - DRIVE
DYEAR=1998
DGENRE=Rock
TTITLE0=DRIVE
TTITLE1=ALRIGHT
TTITLE2=HALKROAD
EXTD=YEAR: 1998
EXTT0=
EXTT1=
EXTT2=
PLAYORDER=
